<svg width="644" height="589" viewBox="0 0 644 589" fill="none" xmlns="http://www.w3.org/2000/svg">
<path d="M383.238 3C384.063 3 384.738 2.325 384.738 1.5C384.738 0.508 385.73 0 387.667 0C389.277 0 391.27 0.675 392.095 1.5C392.92 2.325 394.766 3 396.198 3C397.63 3 399.06 3.675 399.376 4.5C399.693 5.325 400.992 6 402.263 6C405.228 6 407.738 6.96599 407.738 8.10699C407.738 8.59799 407.063 9 406.238 9C405.413 9 404.738 9.675 404.738 10.5C404.738 11.325 404.063 12 403.238 12C402.238 12 401.738 13 401.738 15C401.738 17 401.238 18 400.238 18C399.413 18 398.738 18.675 398.738 19.5C398.738 20.325 398.063 21 397.238 21C396.238 21 395.738 22 395.738 24C395.738 26 395.238 27 394.238 27C393.413 27 392.738 27.675 392.738 28.5C392.738 29.325 392.063 30 391.238 30C390.405 30 389.738 30.889 389.738 32C389.738 33.1 389.297 34 388.757 34C388.218 34 387.494 35.125 387.149 36.5C386.804 37.875 385.895 39 385.13 39C384.25 39 383.738 40.104 383.738 42C383.738 44 383.238 45 382.238 45C381.413 45 380.738 45.675 380.738 46.5C380.738 47.325 380.063 48 379.238 48C378.238 48 377.738 49 377.738 51C377.738 53 377.238 54 376.238 54C375.413 54 374.738 54.675 374.738 55.5C374.738 56.325 374.063 57 373.238 57C372.238 57 371.738 58 371.738 60C371.738 62 371.238 63 370.238 63C369.405 63 368.738 63.889 368.738 65C368.738 66.111 368.071 67 367.238 67C366.305 67 365.738 67.944 365.738 69.5C365.738 71.056 365.171 72 364.238 72C363.405 72 362.738 72.889 362.738 74C362.738 75.111 362.071 76 361.238 76C360.305 76 359.738 76.944 359.738 78.5C359.738 80.056 359.171 81 358.238 81C357.238 81 356.738 82 356.738 84C356.738 86 356.238 87 355.238 87C354.405 87 353.738 87.889 353.738 89C353.738 90.111 353.071 91 352.238 91C351.305 91 350.738 91.944 350.738 93.5C350.738 95.056 350.171 96 349.238 96C348.405 96 347.738 96.889 347.738 98C347.738 99.111 347.071 100 346.238 100C345.238 100 344.738 101 344.738 103C344.738 105 344.238 106 343.238 106C342.305 106 341.738 106.944 341.738 108.5C341.738 110.056 341.171 111 340.238 111C339.405 111 338.738 111.889 338.738 113C338.738 114.111 338.071 115 337.238 115C336.238 115 335.738 116 335.738 118C335.738 120 335.238 121 334.238 121C333.305 121 332.738 121.944 332.738 123.5C332.738 125.056 332.171 126 331.238 126C330.405 126 329.738 126.889 329.738 128C329.738 129.111 329.071 130 328.238 130C327.238 130 326.738 131 326.738 133C326.738 135 326.238 136 325.238 136C324.3 136 323.738 136.948 323.738 138.531C323.738 139.924 323.104 141.306 322.328 141.604C321.553 141.901 320.644 143.237 320.309 144.572C319.974 145.908 319.258 147 318.719 147C318.179 147 317.738 147.9 317.738 149C317.738 150.111 317.071 151 316.238 151C315.238 151 314.738 152 314.738 154C314.738 155.925 314.229 157 313.317 157C312.536 157 311.6 158.35 311.238 160C310.876 161.65 310.201 163 309.738 163C309.275 163 308.6 164.35 308.238 166C307.876 167.65 307.165 169 306.659 169C306.152 169 305.738 169.675 305.738 170.5C305.738 171.325 305.099 172 304.317 172C303.536 172 302.6 173.35 302.238 175C301.876 176.65 301.201 178 300.738 178C300.275 178 299.6 179.35 299.238 181C298.876 182.65 298.201 184 297.738 184C297.275 184 296.6 185.35 296.238 187C295.876 188.65 295.201 190 294.738 190C294.275 190 293.6 191.35 293.238 193C292.876 194.65 292.214 196 291.767 196C291.32 196 290.663 197.163 290.306 198.585C289.949 200.007 288.581 202.167 287.267 203.386C285.952 204.604 284.571 206.816 284.199 208.301C283.826 209.785 283.156 211 282.709 211C282.262 211 281.6 212.35 281.238 214C280.876 215.65 280.201 217 279.738 217C279.275 217 278.6 218.35 278.238 220C277.876 221.65 277.201 223 276.738 223C276.275 223 275.609 224.312 275.256 225.916C274.904 227.521 273.968 229.081 273.177 229.385C272.386 229.689 271.738 231.028 271.738 232.362C271.738 233.695 271.063 235.045 270.238 235.362C269.413 235.678 268.738 237.028 268.738 238.362C268.738 239.695 268.063 241.045 267.238 241.362C266.413 241.678 265.738 243.028 265.738 244.362C265.738 245.695 265.063 247.045 264.238 247.362C263.413 247.678 262.738 249.076 262.738 250.469C262.738 252.052 262.176 253 261.238 253C260.238 253 259.738 254 259.738 256C259.738 258 259.238 259 258.238 259C257.238 259 256.738 260 256.738 262C256.738 264 256.238 265 255.238 265C254.25 265 253.738 265.988 253.738 267.893C253.738 269.542 253.093 271.034 252.238 271.362C251.413 271.678 250.738 273.028 250.738 274.362C250.738 275.695 250.063 277.045 249.238 277.362C248.413 277.678 247.738 279.028 247.738 280.362C247.738 281.695 247.063 283.045 246.238 283.362C245.413 283.678 244.738 285.028 244.738 286.362C244.738 287.695 244.063 289.045 243.238 289.362C242.413 289.678 241.738 291.028 241.738 292.362C241.738 293.695 241.063 295.045 240.238 295.362C239.413 295.678 238.738 297.028 238.738 298.362C238.738 299.695 238.063 301.045 237.238 301.362C236.413 301.678 235.738 303.028 235.738 304.362C235.738 305.695 235.063 307.045 234.238 307.362C233.361 307.698 232.738 309.197 232.738 310.969C232.738 312.997 232.241 314 231.238 314C230.238 314 229.738 315 229.738 317C229.738 319 229.238 320 228.238 320C227.238 320 226.738 321 226.738 323C226.738 325 226.238 326 225.238 326C224.238 326 223.738 327 223.738 329C223.738 330.65 223.337 332 222.846 332C222.356 332 221.645 333.233 221.267 334.74C220.889 336.247 220.131 337.757 219.583 338.096C219.035 338.435 218.336 340.577 218.031 342.856C217.686 345.425 216.955 347 216.106 347C215.253 347 214.738 348.128 214.738 350C214.738 352 214.238 353 213.238 353C212.238 353 211.738 354 211.738 356C211.738 358 211.238 359 210.238 359C209.248 359 208.738 359.991 208.738 361.917C208.738 363.521 208.259 364.993 207.673 365.188C207.088 365.383 206.354 367.446 206.042 369.772C205.688 372.406 204.959 374 204.106 374C203.253 374 202.738 375.128 202.738 377C202.738 379 202.238 380 201.238 380C200.238 380 199.738 381 199.738 383C199.738 385.667 199.405 386 196.738 386C194.738 386 193.738 385.5 193.738 384.5C193.738 383.389 192.571 383 189.238 383C185.905 383 184.738 382.611 184.738 381.5C184.738 380.389 183.571 380 180.238 380C176.905 380 175.738 379.611 175.738 378.5C175.738 377.389 174.571 377 171.238 377C167.905 377 166.738 376.611 166.738 375.5C166.738 374.389 165.571 374 162.238 374C158.905 374 157.738 373.611 157.738 372.5C157.738 371.675 158.413 371 159.238 371C160.321 371 160.738 369.889 160.738 367C160.738 364.111 161.155 363 162.238 363C163.286 363 163.738 361.944 163.738 359.5C163.738 357.056 164.19 356 165.238 356C166.349 356 166.738 354.833 166.738 351.5C166.738 348.167 167.127 347 168.238 347C169.238 347 169.738 346 169.738 344C169.738 342.128 170.253 341 171.106 341C171.959 341 172.688 339.406 173.042 336.772C173.354 334.446 174.088 332.383 174.673 332.188C175.259 331.993 175.738 330.521 175.738 328.917C175.738 326.991 176.248 326 177.238 326C178.238 326 178.738 325 178.738 323C178.738 321.128 179.253 320 180.106 320C180.955 320 181.686 318.425 182.031 315.856C182.336 313.577 183.035 311.435 183.583 311.096C184.131 310.757 184.889 309.247 185.267 307.74C185.645 306.233 186.356 305 186.846 305C187.337 305 187.738 303.65 187.738 302C187.738 300 188.238 299 189.238 299C190.238 299 190.738 298 190.738 296C190.738 294.075 191.247 293 192.159 293C192.94 293 193.876 291.65 194.238 290C194.6 288.35 195.275 287 195.738 287C196.201 287 196.876 285.65 197.238 284C197.6 282.35 198.275 281 198.738 281C199.201 281 199.876 279.65 200.238 278C200.6 276.35 201.291 275 201.772 275C202.254 275 202.943 273.425 203.304 271.5C203.665 269.575 204.325 268 204.77 268C205.215 268 205.876 266.65 206.238 265C206.6 263.35 207.262 262 207.709 262C208.156 262 208.804 260.875 209.149 259.5C209.494 258.125 210.218 257 210.757 257C211.297 257 211.738 256.132 211.738 255.071C211.738 254.011 212.391 252.49 213.189 251.692C213.986 250.894 214.935 249.062 215.297 247.621C215.659 246.179 216.32 245 216.767 245C217.214 245 217.867 243.688 218.22 242.084C218.572 240.479 219.508 238.919 220.299 238.615C221.09 238.311 221.738 236.972 221.738 235.638C221.738 234.305 222.413 232.955 223.238 232.638C224.063 232.322 224.738 230.972 224.738 229.638C224.738 228.305 225.413 226.955 226.238 226.638C227.063 226.322 227.738 225.374 227.738 224.531C227.738 223.689 228.139 223 228.63 223C229.12 223 229.817 221.821 230.179 220.379C230.541 218.938 231.49 217.106 232.287 216.308C233.085 215.51 233.738 213.989 233.738 212.929C233.738 211.868 234.413 211 235.238 211C236.153 211 236.738 210.067 236.738 208.607C236.738 207.291 237.413 205.955 238.238 205.638C239.063 205.322 239.738 204.411 239.738 203.615C239.738 202.818 240.217 202.007 240.803 201.812C242.735 201.168 243.261 193 241.37 193C240.472 193 239.738 192.325 239.738 191.5C239.738 190.675 239.063 190 238.238 190C237.413 190 236.738 189.325 236.738 188.5C236.738 187.675 236.111 187 235.345 187C234.579 187 233.693 186.325 233.376 185.5C233.06 184.675 232.112 184 231.269 184C230.427 184 229.738 183.325 229.738 182.5C229.738 181.675 229.063 181 228.238 181C227.413 181 226.738 180.325 226.738 179.5C226.738 178.675 226.063 178 225.238 178C224.413 178 223.738 177.325 223.738 176.5C223.738 175.675 223.063 175 222.238 175C221.413 175 220.738 174.325 220.738 173.5C220.738 172.675 220.063 172 219.238 172C218.413 172 217.738 171.325 217.738 170.5C217.738 169.675 217.063 169 216.238 169C215.413 169 214.738 168.325 214.738 167.5C214.738 166.675 214.063 166 213.238 166C212.413 166 211.738 165.325 211.738 164.5C211.738 163.675 211.063 163 210.238 163C209.413 163 208.738 162.325 208.738 161.5C208.738 160.675 208.063 160 207.238 160C206.413 160 205.738 159.325 205.738 158.5C205.738 157.675 205.063 157 204.238 157C203.413 157 202.738 156.325 202.738 155.5C202.738 154.675 202.063 154 201.238 154C200.413 154 199.738 153.325 199.738 152.5C199.738 151.675 199.288 151 198.738 151C198.188 151 197.738 150.325 197.738 149.5C197.738 148.675 197.063 148 196.238 148C195.413 148 194.738 147.425 194.738 146.722C194.738 146.019 193.838 144.674 192.738 143.732C191.638 142.79 190.738 141.34 190.738 140.51C190.738 139.679 190.063 139 189.238 139C188.413 139 187.738 138.325 187.738 137.5C187.738 136.675 187.063 136 186.238 136C185.413 136 184.738 135.325 184.738 134.5C184.738 133.675 184.063 133 183.238 133C182.413 133 181.738 132.29 181.738 131.423C181.738 130.556 180.388 128.496 178.738 126.846C177.088 125.196 175.738 123.254 175.738 122.53C175.738 121.806 175.063 120.955 174.238 120.638C173.413 120.322 172.738 119.374 172.738 118.531C172.738 117.689 172.063 117 171.238 117C170.305 117 169.738 116.056 169.738 114.5C169.738 112.944 169.171 112 168.238 112C167.413 112 166.738 111.325 166.738 110.5C166.738 109.675 166.063 109 165.238 109C164.405 109 163.738 108.111 163.738 107C163.738 105.889 163.071 105 162.238 105C161.305 105 160.738 104.056 160.738 102.5C160.738 100.944 160.171 100 159.238 100C158.405 100 157.738 99.111 157.738 98C157.738 96.889 157.071 96 156.238 96C155.305 96 154.738 95.056 154.738 93.5C154.738 91.944 154.171 91 153.238 91C152.405 91 151.738 90.111 151.738 89C151.738 87.889 151.071 87 150.238 87C149.238 87 148.738 86 148.738 84C148.738 82 148.238 81 147.238 81C146.305 81 145.738 80.056 145.738 78.5C145.738 76.944 145.171 76 144.238 76C143.405 76 142.738 75.111 142.738 74C142.738 72.889 142.071 72 141.238 72C140.238 72 139.738 71 139.738 69C139.738 67 139.238 66 138.238 66C137.238 66 136.738 65 136.738 63C136.738 61 136.238 60 135.238 60C131.043 60 135.304 52.649 140.213 51.417C141.602 51.068 142.738 50.418 142.738 49.971C142.738 49.524 144.088 48.862 145.738 48.5C147.388 48.138 148.738 47.427 148.738 46.921C148.738 46.414 149.413 46 150.238 46C151.063 46 151.738 45.361 151.738 44.579C151.738 43.798 153.088 42.862 154.738 42.5C156.388 42.138 157.738 41.463 157.738 41C157.738 40.537 159.088 39.862 160.738 39.5C162.388 39.138 163.738 38.202 163.738 37.421C163.738 36.639 164.413 36 165.238 36C166.063 36 166.738 35.586 166.738 35.079C166.738 34.573 168.088 33.862 169.738 33.5C171.388 33.138 172.738 32.463 172.738 32C172.738 31.537 174.088 30.862 175.738 30.5C177.388 30.138 178.738 29.427 178.738 28.921C178.738 28.414 179.313 28 180.016 28C180.719 28 182.064 27.1 183.006 26C183.948 24.9 185.398 24 186.228 24C187.059 24 187.738 23.586 187.738 23.079C187.738 22.573 189.088 21.862 190.738 21.5C192.388 21.138 193.738 20.463 193.738 20C193.738 19.537 195.05 18.871 196.654 18.518C198.259 18.166 199.819 17.23 200.123 16.439C200.427 15.648 201.364 15 202.207 15C203.049 15 203.738 14.559 203.738 14.019C203.738 13.48 204.83 12.764 206.166 12.429C207.501 12.094 208.837 11.185 209.134 10.41C209.432 9.634 210.766 9 212.1 9C213.433 9 214.783 8.325 215.1 7.5C215.416 6.675 216.327 6 217.123 6C217.92 6 218.834 5.438 219.155 4.75C219.621 3.75 219.855 3.75 220.321 4.75C220.642 5.438 221.542 6 222.321 6C223.334 6 223.738 7.284 223.738 10.5C223.738 13.833 224.127 15 225.238 15C226.349 15 226.738 16.167 226.738 19.5C226.738 22.833 227.127 24 228.238 24C229.28 24 229.738 25.048 229.738 27.429C229.738 29.314 230.413 31.532 231.238 32.357C232.063 33.182 232.738 35.028 232.738 36.46C232.738 37.892 233.413 39.322 234.238 39.638C235.093 39.966 235.738 41.458 235.738 43.107C235.738 45.012 236.25 46 237.238 46C238.23 46 238.738 46.992 238.738 48.929C238.738 50.539 239.337 52.456 240.069 53.188C240.802 53.921 241.71 55.753 242.088 57.26C242.467 58.767 243.218 60 243.757 60C244.297 60 244.738 60.868 244.738 61.929C244.738 62.989 245.337 64.456 246.069 65.188C246.802 65.921 247.71 67.753 248.088 69.26C248.467 70.767 249.218 72 249.757 72C250.297 72 250.738 72.9 250.738 74C250.738 75.111 251.405 76 252.238 76C253.176 76 253.738 76.948 253.738 78.531C253.738 79.924 254.413 81.322 255.238 81.638C256.063 81.955 256.738 83.305 256.738 84.638C256.738 85.972 257.372 87.306 258.148 87.604C258.923 87.901 259.832 89.237 260.167 90.572C260.502 91.908 261.218 93 261.757 93C262.297 93 262.738 93.9 262.738 95C262.738 96.1 263.377 97 264.159 97C264.94 97 265.876 98.35 266.238 100C266.6 101.65 267.311 103 267.817 103C268.324 103 268.738 103.675 268.738 104.5C268.738 105.325 269.413 106 270.238 106C271.176 106 271.738 106.948 271.738 108.531C271.738 109.924 272.372 111.306 273.148 111.604C273.923 111.901 274.832 113.237 275.167 114.572C275.502 115.908 276.218 117 276.757 117C277.297 117 277.738 117.689 277.738 118.531C277.738 119.374 278.413 120.322 279.238 120.638C280.063 120.955 280.738 121.809 280.738 122.536C280.738 124.484 283.596 127 285.809 127C286.87 127 287.738 126.325 287.738 125.5C287.738 124.675 288.413 124 289.238 124C290.063 124 290.738 123.325 290.738 122.5C290.738 121.675 291.413 121 292.238 121C293.238 121 293.738 120 293.738 118C293.738 116 294.238 115 295.238 115C296.063 115 296.738 114.325 296.738 113.5C296.738 112.675 297.413 112 298.238 112C299.238 112 299.738 111 299.738 109C299.738 107 300.238 106 301.238 106C302.063 106 302.738 105.325 302.738 104.5C302.738 103.675 303.413 103 304.238 103C305.071 103 305.738 102.111 305.738 101C305.738 99.889 306.405 99 307.238 99C308.171 99 308.738 98.056 308.738 96.5C308.738 94.944 309.305 94 310.238 94C311.063 94 311.738 93.325 311.738 92.5C311.738 91.675 312.413 91 313.238 91C314.071 91 314.738 90.111 314.738 89C314.738 87.9 315.179 87 315.719 87C316.258 87 316.982 85.875 317.327 84.5C317.672 83.125 318.581 82 319.346 82C320.112 82 320.738 81.373 320.738 80.607C320.738 79.841 321.413 78.955 322.238 78.638C323.063 78.322 323.738 77.374 323.738 76.531C323.738 75.689 324.179 75 324.719 75C325.258 75 325.982 73.875 326.327 72.5C326.672 71.125 327.581 70 328.346 70C329.112 70 329.738 69.325 329.738 68.5C329.738 67.675 330.413 67 331.238 67C332.071 67 332.738 66.111 332.738 65C332.738 63.889 333.405 63 334.238 63C335.171 63 335.738 62.056 335.738 60.5C335.738 58.944 336.305 58 337.238 58C338.063 58 338.738 57.325 338.738 56.5C338.738 55.675 339.413 55 340.238 55C341.071 55 341.738 54.111 341.738 53C341.738 51.889 342.405 51 343.238 51C344.171 51 344.738 50.056 344.738 48.5C344.738 46.944 345.305 46 346.238 46C347.063 46 347.738 45.325 347.738 44.5C347.738 43.675 348.413 43 349.238 43C350.063 43 350.738 42.325 350.738 41.5C350.738 40.675 351.413 40 352.238 40C353.071 40 353.738 39.111 353.738 38C353.738 36.889 354.405 36 355.238 36C356.063 36 356.738 35.325 356.738 34.5C356.738 33.675 357.364 33 358.13 33C358.895 33 359.804 31.875 360.149 30.5C360.494 29.125 361.218 28 361.757 28C362.297 28 362.738 27.325 362.738 26.5C362.738 25.675 363.413 25 364.238 25C365.063 25 365.738 24.311 365.738 23.469C365.738 22.626 366.413 21.678 367.238 21.362C368.063 21.045 368.738 20.159 368.738 19.393C368.738 18.627 369.413 18 370.238 18C371.063 18 371.738 17.325 371.738 16.5C371.738 15.675 372.413 15 373.238 15C374.063 15 374.738 14.347 374.738 13.548C374.738 12.75 376.313 10.567 378.238 8.69699C380.163 6.82799 381.738 4.78099 381.738 4.14899C381.738 3.51699 382.413 3 383.238 3Z" fill="black"/>
<path d="M46.7383 432.031C46.7383 430.914 47.5253 429.138 48.4883 428.083C50.7883 425.564 53.2743 425.536 55.7383 428C58.3633 430.625 58.7793 448.387 56.2383 449.362C55.4133 449.678 54.7383 451.076 54.7383 452.469C54.7383 454.052 54.1763 455 53.2383 455C52.4053 455 51.7383 455.889 51.7383 457C51.7383 458.111 51.0713 459 50.2383 459C49.4133 459 48.7383 459.445 48.7383 459.989C48.7383 461.51 45.4503 465 44.0163 465C43.3133 465 42.7383 465.675 42.7383 466.5C42.7383 467.325 42.0633 468 41.2383 468C40.4133 468 39.7383 468.45 39.7383 469C39.7383 469.55 39.0633 470 38.2383 470C37.4133 470 36.7383 470.639 36.7383 471.421C36.7383 472.202 35.3883 473.138 33.7383 473.5C32.0883 473.862 30.7383 474.573 30.7383 475.079C30.7383 475.586 29.4204 476 27.8094 476C26.1994 476 24.2063 476.675 23.3813 477.5C22.2843 478.597 19.6073 479 13.4163 479C6.81532 479 4.82528 478.67 4.37628 477.5C4.06028 476.675 3.11235 476 2.26935 476C-2.12565 476 0.45737 462.301 4.96637 461.696C7.29237 461.384 9.35535 460.65 9.55035 460.065C9.74535 459.479 12.0853 459 14.7503 459C17.7233 459 20.1754 458.421 21.0954 457.5C21.9204 456.675 23.7523 456 25.1673 456C26.7863 456 27.7383 455.444 27.7383 454.5C27.7383 453.5 28.7383 453 30.7383 453C32.7383 453 33.7383 452.5 33.7383 451.5C33.7383 450.675 34.3013 449.992 34.9883 449.983C36.9153 449.956 40.7383 445.457 40.7383 443.216C40.7383 442.115 41.4133 440.955 42.2383 440.638C43.0633 440.322 43.7383 438.972 43.7383 437.638C43.7383 436.305 44.4133 434.955 45.2383 434.638C46.0633 434.322 46.7383 433.149 46.7383 432.031Z" fill="black"/>
<path d="M483.738 428.5C485.388 428.138 486.738 427.427 486.738 426.921C486.738 426.411 492.095 426 498.738 426C505.381 426 510.738 426.411 510.738 426.921C510.738 427.427 512.088 428.138 513.738 428.5C515.388 428.862 516.738 429.573 516.738 430.079C516.738 430.586 517.413 431 518.238 431C519.063 431 519.738 431.675 519.738 432.5C519.738 433.325 520.413 434 521.238 434C522.063 434 522.738 434.675 522.738 435.5C522.738 436.325 523.413 437 524.238 437C525.071 437 525.738 437.889 525.738 439C525.738 440.111 526.405 441 527.238 441C528.171 441 528.738 441.944 528.738 443.5C528.738 445.056 529.305 446 530.238 446C531.505 446 531.738 448.333 531.738 461C531.738 473.667 531.505 476 530.238 476C529.105 476 528.738 477.222 528.738 481C528.738 484.778 528.371 486 527.238 486C526.086 486 525.738 487.278 525.738 491.5C525.738 495.722 525.39 497 524.238 497C523.19 497 522.738 498.056 522.738 500.5C522.738 503.722 522.976 504 525.738 504C527.738 504 528.738 503.5 528.738 502.5C528.738 501.5 529.738 501 531.738 501C533.738 501 534.738 500.5 534.738 499.5C534.738 498.5 535.738 498 537.738 498C539.738 498 540.738 497.5 540.738 496.5C540.738 495.675 541.606 495 542.667 495C543.727 495 545.27 494.325 546.095 493.5C546.92 492.675 548.077 492 548.667 492C549.256 492 549.738 491.325 549.738 490.5C549.738 489.675 550.606 489 551.667 489C552.727 489 554.27 488.325 555.095 487.5C555.92 486.675 557.077 486 557.667 486C558.256 486 558.738 485.325 558.738 484.5C558.738 483.675 559.606 483 560.667 483C561.727 483 563.27 482.325 564.095 481.5C564.92 480.675 566.077 480 566.667 480C567.256 480 567.738 479.325 567.738 478.5C567.738 477.675 568.606 477 569.667 477C570.727 477 572.27 476.325 573.095 475.5C573.92 474.675 575.091 474 575.698 474C576.305 474 577.06 473.325 577.376 472.5C577.693 471.675 579.029 471 580.345 471C581.805 471 582.738 470.415 582.738 469.5C582.738 468.333 584.071 468 588.738 468C594.738 468 594.738 468 594.738 473C594.738 477.883 592.451 482 589.738 482C589.188 482 588.738 482.675 588.738 483.5C588.738 484.325 588.063 485 587.238 485C586.413 485 585.738 485.675 585.738 486.5C585.738 487.325 585.063 488 584.238 488C583.413 488 582.738 488.675 582.738 489.5C582.738 490.325 582.063 491 581.238 491C580.413 491 579.738 491.675 579.738 492.5C579.738 493.325 579.063 494 578.238 494C577.413 494 576.738 494.675 576.738 495.5C576.738 496.325 576.059 497 575.228 497C574.398 497 572.948 497.9 572.006 499C571.064 500.1 569.719 501 569.016 501C568.313 501 567.738 501.675 567.738 502.5C567.738 503.325 567.063 504 566.238 504C565.413 504 564.738 504.675 564.738 505.5C564.738 506.325 564.063 507 563.238 507C562.413 507 561.738 507.675 561.738 508.5C561.738 509.325 561.063 510 560.238 510C559.413 510 558.738 510.414 558.738 510.921C558.738 511.427 557.388 512.138 555.738 512.5C554.088 512.862 552.738 513.798 552.738 514.579C552.738 515.361 552.063 516 551.238 516C550.413 516 549.738 516.414 549.738 516.921C549.738 517.427 548.388 518.138 546.738 518.5C545.088 518.862 543.738 519.798 543.738 520.579C543.738 521.361 543.063 522 542.238 522C541.413 522 540.738 522.675 540.738 523.5C540.738 524.5 539.738 525 537.738 525C535.738 525 534.738 525.5 534.738 526.5C534.738 527.325 534.063 528 533.238 528C532.413 528 531.738 528.675 531.738 529.5C531.738 530.5 530.738 531 528.738 531C526.738 531 525.738 531.5 525.738 532.5C525.738 533.5 524.738 534 522.738 534C520.738 534 519.738 534.5 519.738 535.5C519.738 536.5 518.738 537 516.738 537C514.738 537 513.738 537.5 513.738 538.5C513.738 539.333 512.849 540 511.738 540C510.627 540 509.738 540.667 509.738 541.5C509.738 542.433 508.794 543 507.238 543C505.682 543 504.738 543.567 504.738 544.5C504.738 545.548 503.682 546 501.238 546C498.794 546 497.738 546.452 497.738 547.5C497.738 548.5 496.738 549 494.738 549C492.738 549 491.738 549.5 491.738 550.5C491.738 551.492 490.746 552 488.809 552C487.199 552 485.206 552.675 484.381 553.5C483.556 554.325 481.724 555 480.309 555C478.69 555 477.738 555.556 477.738 556.5C477.738 557.503 476.735 558 474.707 558C472.935 558 471.436 558.623 471.1 559.5C470.724 560.478 469.169 561 466.631 561C463.837 561 462.738 561.424 462.738 562.5C462.738 563.542 461.69 564 459.309 564C457.424 564 455.206 564.675 454.381 565.5C453.556 566.325 451.531 567 449.881 567C448.231 567 446.206 567.675 445.381 568.5C444.539 569.342 442.095 570 439.809 570C436.857 570 435.738 570.412 435.738 571.5C435.738 572.63 434.524 573 430.809 573C427.762 573 425.308 573.572 424.381 574.5C423.406 575.474 420.928 576 417.309 576C413.024 576 411.738 576.346 411.738 577.5C411.738 578.678 410.357 579 405.309 579C400.928 579 398.403 579.478 397.381 580.5C396.268 581.613 393.54 582 386.809 582C379.594 582 377.738 582.294 377.738 583.436C377.738 584.617 374.61 584.927 360.07 585.186C347.054 585.417 342.293 585.829 341.987 586.75C341.392 588.539 312.086 588.543 311.489 586.754C311.183 585.835 306.05 585.414 291.906 585.147C276.368 584.853 272.738 584.521 272.738 583.392C272.738 582.307 270.777 582 263.845 582C256.863 582 254.828 581.678 254.376 580.5C253.935 579.35 252.041 579 246.269 579C240.241 579 238.738 578.701 238.738 577.5C238.738 576.333 237.405 576 232.738 576C228.071 576 226.738 575.667 226.738 574.5C226.738 573.333 225.405 573 220.738 573C216.071 573 214.738 572.667 214.738 571.5C214.738 570.412 213.619 570 210.667 570C208.381 570 205.937 569.342 205.095 568.5C204.27 567.675 202.245 567 200.595 567C198.945 567 196.92 566.325 196.095 565.5C195.27 564.675 193.052 564 191.167 564C188.786 564 187.738 563.542 187.738 562.5C187.738 561.389 186.571 561 183.238 561C179.905 561 178.738 560.611 178.738 559.5C178.738 558.5 177.738 558 175.738 558C173.738 558 172.738 557.5 172.738 556.5C172.738 555.389 171.571 555 168.238 555C164.905 555 163.738 554.611 163.738 553.5C163.738 552.5 162.738 552 160.738 552C158.738 552 157.738 551.5 157.738 550.5C157.738 549.5 156.738 549 154.738 549C152.738 549 151.738 548.5 151.738 547.5C151.738 546.5 150.738 546 148.738 546C146.738 546 145.738 545.5 145.738 544.5C145.738 543.5 144.738 543 142.738 543C140.738 543 139.738 542.5 139.738 541.5C139.738 540.5 138.738 540 136.738 540C134.738 540 133.738 539.5 133.738 538.5C133.738 537.5 132.738 537 130.738 537C128.738 537 127.738 536.5 127.738 535.5C127.738 534.675 127.063 534 126.238 534C125.413 534 124.738 533.325 124.738 532.5C124.738 531.5 123.738 531 121.738 531C119.738 531 118.738 530.5 118.738 529.5C118.738 528.5 117.738 528 115.738 528C113.738 528 112.738 527.5 112.738 526.5C112.738 525.675 112.063 525 111.238 525C110.413 525 109.738 524.325 109.738 523.5C109.738 522.5 108.738 522 106.738 522C104.738 522 103.738 521.5 103.738 520.5C103.738 519.675 103.063 519 102.238 519C101.413 519 100.738 518.325 100.738 517.5C100.738 516.675 99.8704 516 98.8094 516C97.7494 516 96.2063 515.325 95.3813 514.5C94.5563 513.675 93.3994 513 92.8094 513C92.2204 513 91.7383 512.325 91.7383 511.5C91.7383 510.675 91.0633 510 90.2383 510C89.4133 510 88.7383 509.325 88.7383 508.5C88.7383 507.675 88.0493 507 87.2073 507C86.3643 507 85.4323 506.366 85.1343 505.59C84.8373 504.815 83.5013 503.906 82.1663 503.571C80.8303 503.236 79.7383 502.52 79.7383 501.981C79.7383 501.441 79.0633 501 78.2383 501C77.4133 501 76.7383 500.425 76.7383 499.722C76.7383 498.288 73.2484 495 71.7274 495C71.1834 495 70.7383 494.325 70.7383 493.5C70.7383 492.675 70.2283 492 69.6043 492C68.1833 492 58.7383 482.488 58.7383 481.056C58.7383 480.475 58.0633 480 57.2383 480C56.4133 480 55.7383 479.132 55.7383 478.071C55.7383 477.011 55.0633 475.468 54.2383 474.643C52.3073 472.712 52.3413 472.397 54.7383 470C56.8393 467.899 64.7383 467.094 64.7383 468.981C64.7383 469.52 65.8303 470.236 67.1663 470.571C68.5013 470.906 69.8373 471.815 70.1343 472.59C70.4323 473.366 71.8143 474 73.2073 474C74.7903 474 75.7383 474.562 75.7383 475.5C75.7383 476.333 76.6273 477 77.7383 477C78.8493 477 79.7383 477.667 79.7383 478.5C79.7383 479.433 80.6823 480 82.2383 480C83.7943 480 84.7383 480.567 84.7383 481.5C84.7383 482.325 85.3653 483 86.1313 483C86.8973 483 87.7834 483.675 88.1004 484.5C88.4164 485.325 89.8143 486 91.2073 486C92.7903 486 93.7383 486.562 93.7383 487.5C93.7383 488.333 94.6273 489 95.7383 489C96.8493 489 97.7383 489.667 97.7383 490.5C97.7383 491.5 98.7383 492 100.738 492C102.738 492 103.738 492.5 103.738 493.5C103.738 494.5 104.738 495 106.738 495C108.738 495 109.738 495.5 109.738 496.5C109.738 497.433 110.682 498 112.238 498C113.794 498 114.738 498.567 114.738 499.5C114.738 500.333 115.627 501 116.738 501C117.849 501 118.738 501.667 118.738 502.5C118.738 503.5 119.738 504 121.738 504C123.738 504 124.738 504.5 124.738 505.5C124.738 506.5 125.738 507 127.738 507C129.738 507 130.738 507.5 130.738 508.5C130.738 509.5 131.738 510 133.738 510C135.738 510 136.738 510.5 136.738 511.5C136.738 512.5 137.738 513 139.738 513C141.738 513 142.738 513.5 142.738 514.5C142.738 515.611 143.905 516 147.238 516C150.571 516 151.738 516.389 151.738 517.5C151.738 518.5 152.738 519 154.738 519C156.738 519 157.738 519.5 157.738 520.5C157.738 521.611 158.905 522 162.238 522C165.571 522 166.738 522.389 166.738 523.5C166.738 524.5 167.738 525 169.738 525C171.738 525 172.738 525.5 172.738 526.5C172.738 527.611 173.905 528 177.238 528C180.571 528 181.738 528.389 181.738 529.5C181.738 530.611 182.905 531 186.238 531C189.571 531 190.738 531.389 190.738 532.5C190.738 533.667 192.071 534 196.738 534C201.405 534 202.738 534.333 202.738 535.5C202.738 536.667 204.071 537 208.738 537C213.405 537 214.738 537.333 214.738 538.5C214.738 539.667 216.071 540 220.738 540C225.405 540 226.738 540.333 226.738 541.5C226.738 542.708 228.294 543 234.738 543C241.182 543 242.738 543.292 242.738 544.5C242.738 545.733 244.516 546 252.738 546C260.561 546 262.738 546.3 262.738 547.376C262.738 548.465 265.908 548.843 277.924 549.184C288.459 549.483 293.231 549.98 293.507 550.808C294.084 552.538 362.397 552.524 362.974 550.793C363.22 550.054 366.159 549.429 370.557 549.18C375.819 548.883 377.738 548.404 377.738 547.387C377.738 546.513 378.846 546 380.738 546C382.738 546 383.738 545.5 383.738 544.5C383.738 543.452 384.794 543 387.238 543C389.682 543 390.738 542.548 390.738 541.5C390.738 540.567 391.682 540 393.238 540C394.794 540 395.738 539.433 395.738 538.5C395.738 537.675 396.413 537 397.238 537C398.063 537 398.738 536.325 398.738 535.5C398.738 534.667 399.627 534 400.738 534C401.849 534 402.738 533.333 402.738 532.5C402.738 531.675 403.413 531 404.238 531C405.063 531 405.738 530.325 405.738 529.5C405.738 528.675 406.413 528 407.238 528C408.063 528 408.738 527.325 408.738 526.5C408.738 525.675 409.413 525 410.238 525C411.063 525 411.738 524.325 411.738 523.5C411.738 522.675 412.413 522 413.238 522C414.063 522 414.738 521.529 414.738 520.952C414.738 520.376 415.832 518.891 417.169 517.652C418.506 516.413 419.905 514.184 420.277 512.699C420.65 511.215 421.581 510 422.346 510C423.112 510 423.738 509.325 423.738 508.5C423.738 507.675 424.413 507 425.238 507C426.238 507 426.738 506 426.738 504C426.738 502 427.238 501 428.238 501C429.063 501 429.738 500.373 429.738 499.607C429.738 498.841 430.413 497.955 431.238 497.638C432.063 497.322 432.738 495.924 432.738 494.531C432.738 492.948 433.3 492 434.238 492C435.071 492 435.738 491.111 435.738 490C435.738 488.9 436.179 488 436.719 488C437.258 488 437.982 486.875 438.327 485.5C438.672 484.125 439.32 483 439.767 483C440.214 483 440.867 481.688 441.22 480.084C441.572 478.479 442.508 476.919 443.299 476.615C444.09 476.311 444.738 474.924 444.738 473.531C444.738 471.948 445.3 471 446.238 471C447.238 471 447.738 470 447.738 468C447.738 466 448.238 465 449.238 465C450.071 465 450.738 464.111 450.738 463C450.738 461.9 451.179 461 451.719 461C452.258 461 452.974 459.908 453.309 458.572C453.644 457.237 454.553 455.901 455.328 455.604C456.104 455.306 456.738 453.924 456.738 452.531C456.738 450.948 457.3 450 458.238 450C459.063 450 459.738 449.373 459.738 448.607C459.738 447.841 460.413 446.955 461.238 446.638C462.063 446.322 462.738 445.564 462.738 444.954C462.738 443.514 468.252 438 469.692 438C470.302 438 471.06 437.325 471.376 436.5C471.693 435.675 472.579 435 473.345 435C474.111 435 474.738 434.361 474.738 433.579C474.738 432.798 476.088 431.862 477.738 431.5C479.388 431.138 480.738 430.463 480.738 430C480.738 429.537 482.088 428.862 483.738 428.5Z" fill="black"/>
<path d="M588.238 428C589.063 428 589.738 427.55 589.738 427C589.738 426.45 590.863 426 592.238 426C594.238 426 594.738 426.5 594.738 428.5C594.738 430.056 595.305 431 596.238 431C597.241 431 597.738 432.003 597.738 434.031C597.738 435.803 598.361 437.302 599.238 437.638C600.063 437.955 600.738 439.291 600.738 440.607C600.738 442.067 601.323 443 602.238 443C603.063 443 603.738 443.503 603.738 444.118C603.738 446.089 611.427 453 613.62 453C614.836 453 615.738 453.639 615.738 454.5C615.738 455.548 616.794 456 619.238 456C621.682 456 622.738 456.452 622.738 457.5C622.738 458.648 624.004 459 628.131 459C632.002 459 633.686 459.423 634.1 460.5C634.476 461.481 636.034 462 638.598 462C644.619 462 645.991 475.146 640.123 476.618C638.811 476.947 637.738 477.618 637.738 478.108C637.738 479.763 623.021 479.18 622.376 477.5C622.04 476.623 620.541 476 618.769 476C617.102 476 615.738 475.608 615.738 475.128C615.738 474.648 613.987 473.976 611.847 473.633C609.707 473.291 607.696 472.334 607.379 471.506C607.061 470.678 606.112 470 605.269 470C604.427 470 603.738 469.559 603.738 469.019C603.738 468.48 602.613 467.756 601.238 467.411C599.863 467.066 598.738 466.157 598.738 465.392C598.738 464.626 598.112 464 597.346 464C596.581 464 595.672 462.875 595.327 461.5C594.982 460.125 594.258 459 593.719 459C593.179 459 592.738 458.311 592.738 457.469C592.738 456.626 592.063 455.678 591.238 455.362C590.413 455.045 589.738 453.695 589.738 452.362C589.738 451.028 589.063 449.678 588.238 449.362C587.038 448.901 586.738 446.709 586.738 438.393C586.738 429.821 587.001 428 588.238 428Z" fill="black"/>
<path d="M431.912 14.3716C433.279 14.0286 434.397 13.1216 434.397 12.3566C434.397 10.4876 437.31 10.5746 438.035 12.4646C438.359 13.3076 439.847 13.9646 441.433 13.9646C442.984 13.9646 444.917 14.6276 445.726 15.4366C446.536 16.2466 449.043 17.2046 451.298 17.5646C453.552 17.9256 455.397 18.6126 455.397 19.0926C455.397 19.5726 456.184 20.0006 457.147 20.0436C458.192 20.0906 458.394 20.3256 457.647 20.6266C456.96 20.9046 456.397 21.7316 456.397 22.4646C456.397 23.1976 456.96 24.0606 457.647 24.3816C458.647 24.8476 458.647 25.0816 457.647 25.5476C456.96 25.8686 456.397 26.6686 456.397 27.3256C456.397 27.9826 455.497 29.2906 454.397 30.2326C453.297 31.1746 452.397 32.6246 452.397 33.4546C452.397 34.2856 451.983 34.9646 451.476 34.9646C450.97 34.9646 450.259 36.3146 449.897 37.9646C449.535 39.6146 448.599 40.9646 447.818 40.9646C447.036 40.9646 446.397 41.5916 446.397 42.3576C446.397 43.1236 445.722 44.0096 444.897 44.3266C444.072 44.6426 443.397 45.9926 443.397 47.3266C443.397 48.6596 442.722 50.0096 441.897 50.3266C441.072 50.6426 440.397 51.5906 440.397 52.4336C440.397 53.2756 439.956 53.9646 439.416 53.9646C438.877 53.9646 438.153 55.0896 437.808 56.4646C437.463 57.8396 436.779 58.9646 436.289 58.9646C435.798 58.9646 435.397 59.6536 435.397 60.4956C435.397 61.3386 434.719 62.2876 433.891 62.6056C433.063 62.9226 432.11 64.9056 431.773 67.0116C431.437 69.1176 430.539 71.0796 429.779 71.3716C429.019 71.6636 428.397 72.3976 428.397 73.0046C428.397 73.6116 427.722 74.7826 426.897 75.6076C426.072 76.4326 425.397 77.9756 425.397 79.0356C425.397 80.0966 424.956 80.9646 424.416 80.9646C423.877 80.9646 423.161 82.0566 422.826 83.3926C422.491 84.7276 421.582 86.0636 420.807 86.3606C420.031 86.6586 419.397 87.9926 419.397 89.3266C419.397 90.6596 418.722 92.0096 417.897 92.3266C417.072 92.6426 416.397 93.5906 416.397 94.4336C416.397 95.2756 415.952 95.9646 415.409 95.9646C414.865 95.9646 414.133 97.7646 413.781 99.9646C413.429 102.165 412.735 103.965 412.238 103.965C411.741 103.965 411.036 104.753 410.672 105.715C410.307 106.677 409.421 108.06 408.703 108.786C407.985 109.513 407.397 110.976 407.397 112.036C407.397 113.097 406.983 113.965 406.476 113.965C405.97 113.965 405.259 115.315 404.897 116.965C404.535 118.615 403.832 119.965 403.337 119.965C402.841 119.965 402.126 121.198 401.747 122.705C401.369 124.212 400.461 126.044 399.728 126.777C398.996 127.509 398.397 128.976 398.397 130.036C398.397 131.097 397.722 131.965 396.897 131.965C395.897 131.965 395.397 132.965 395.397 134.965C395.397 136.965 394.897 137.965 393.897 137.965C393.072 137.965 392.397 138.602 392.397 139.382C392.397 140.161 391.918 140.958 391.332 141.153C390.747 141.348 390.013 143.411 389.701 145.737C389.347 148.371 388.618 149.965 387.765 149.965C386.912 149.965 386.397 151.093 386.397 152.965C386.397 154.965 385.897 155.965 384.897 155.965C383.897 155.965 383.397 156.965 383.397 158.965C383.397 160.965 382.897 161.965 381.897 161.965C380.897 161.965 380.397 162.965 380.397 164.965C380.397 166.965 379.897 167.965 378.897 167.965C377.897 167.965 377.397 168.965 377.397 170.965C377.397 172.965 376.897 173.965 375.897 173.965C374.897 173.965 374.397 174.965 374.397 176.965C374.397 178.965 373.897 179.965 372.897 179.965C371.849 179.965 371.397 181.021 371.397 183.465C371.397 185.39 370.956 186.965 370.416 186.965C369.877 186.965 369.153 188.09 368.808 189.465C368.463 190.84 367.554 191.965 366.789 191.965C365.754 191.965 365.397 193.506 365.397 197.965C365.397 202.632 365.73 203.965 366.897 203.965C367.722 203.965 368.397 204.64 368.397 205.465C368.397 206.29 369.072 206.965 369.897 206.965C370.722 206.965 371.397 207.64 371.397 208.465C371.397 209.29 372.072 209.965 372.897 209.965C373.722 209.965 374.397 210.64 374.397 211.465C374.397 212.29 375.072 212.965 375.897 212.965C376.73 212.965 377.397 213.854 377.397 214.965C377.397 216.065 378.023 216.965 378.789 216.965C379.554 216.965 380.463 218.09 380.808 219.465C381.153 220.84 381.877 221.965 382.416 221.965C382.956 221.965 383.397 222.64 383.397 223.465C383.397 224.29 384.072 224.965 384.897 224.965C385.722 224.965 386.397 225.64 386.397 226.465C386.397 227.29 387.072 227.965 387.897 227.965C388.722 227.965 389.397 228.654 389.397 229.496C389.397 230.339 390.072 231.287 390.897 231.603C391.722 231.92 392.397 232.806 392.397 233.572C392.397 234.338 393.072 234.965 393.897 234.965C394.83 234.965 395.397 235.909 395.397 237.465C395.397 239.021 395.964 239.965 396.897 239.965C397.722 239.965 398.397 240.64 398.397 241.465C398.397 242.29 399.072 242.965 399.897 242.965C400.722 242.965 401.397 243.654 401.397 244.496C401.397 245.339 402.031 246.271 402.807 246.569C403.582 246.866 404.491 248.202 404.826 249.537C405.161 250.873 405.877 251.965 406.416 251.965C406.956 251.965 407.397 252.64 407.397 253.465C407.397 254.29 408.072 254.965 408.897 254.965C409.722 254.965 410.397 255.654 410.397 256.496C410.397 257.339 411.072 258.287 411.897 258.603C412.722 258.92 413.397 259.806 413.397 260.572C413.397 261.338 414.072 261.965 414.897 261.965C415.722 261.965 416.397 262.64 416.397 263.465C416.397 264.29 417.072 264.965 417.897 264.965C418.835 264.965 419.397 265.913 419.397 267.496C419.397 268.889 420.072 270.287 420.897 270.603C421.722 270.92 422.397 271.806 422.397 272.572C422.397 273.338 423.072 273.965 423.897 273.965C424.722 273.965 425.397 274.644 425.397 275.475C425.397 276.305 426.297 277.755 427.397 278.697C428.497 279.639 429.397 280.82 429.397 281.323C429.397 281.825 430.522 283.278 431.897 284.553C433.272 285.827 434.397 287.341 434.397 287.917C434.397 288.494 435.072 288.965 435.897 288.965C436.722 288.965 437.397 289.644 437.397 290.475C437.397 291.305 438.297 292.755 439.397 293.697C440.497 294.639 441.397 295.812 441.397 296.304C441.397 296.796 443.197 298.946 445.397 301.081C447.597 303.216 449.397 305.413 449.397 305.964C449.397 306.515 450.072 306.965 450.897 306.965C451.722 306.965 452.397 307.644 452.397 308.475C452.397 309.305 453.297 310.755 454.397 311.697C455.497 312.639 456.397 313.984 456.397 314.687C456.397 315.39 457.072 315.965 457.897 315.965C458.722 315.965 459.397 316.64 459.397 317.465C459.397 318.29 459.847 318.965 460.397 318.965C460.947 318.965 461.397 319.64 461.397 320.465C461.397 321.29 462.072 321.965 462.897 321.965C463.722 321.965 464.397 322.64 464.397 323.465C464.397 324.29 465.023 324.965 465.789 324.965C466.554 324.965 467.461 326.083 467.804 327.45C468.183 328.961 469.378 330.173 470.853 330.543C472.491 330.954 473.487 332.097 473.918 334.059C474.269 335.657 474.965 336.965 475.465 336.965C476.923 336.965 480.397 340.291 480.397 341.687C480.397 342.39 481.072 342.965 481.897 342.965C482.722 342.965 483.397 343.64 483.397 344.465C483.397 345.29 484.072 345.965 484.897 345.965C485.722 345.965 486.397 346.64 486.397 347.465C486.397 348.29 487.072 348.965 487.897 348.965C488.722 348.965 489.397 349.64 489.397 350.465C489.397 351.29 490.072 351.965 490.897 351.965C491.722 351.965 492.397 352.64 492.397 353.465C492.397 354.29 493.072 354.965 493.897 354.965C494.722 354.965 495.397 355.64 495.397 356.465C495.397 357.29 496.072 357.965 496.897 357.965C497.722 357.965 498.397 358.64 498.397 359.465C498.397 360.385 499.333 360.965 500.818 360.965C502.694 360.965 503.386 361.639 503.897 363.965C504.259 365.615 505.195 366.965 505.976 366.965C506.888 366.965 507.397 368.04 507.397 369.965C507.397 372.854 507.23 372.965 502.897 372.965C499.564 372.965 498.397 373.354 498.397 374.465C498.397 375.465 497.397 375.965 495.397 375.965C493.397 375.965 492.397 376.465 492.397 377.465C492.397 378.507 491.349 378.965 488.968 378.965C487.083 378.965 484.865 379.64 484.04 380.465C483.215 381.29 481.383 381.965 479.968 381.965C478.349 381.965 477.397 382.521 477.397 383.465C477.397 384.507 476.349 384.965 473.968 384.965C472.083 384.965 469.941 385.564 469.209 386.296C468.476 387.029 466.644 387.937 465.137 388.315C463.63 388.694 462.397 389.445 462.397 389.984C462.397 390.524 461.033 390.965 459.366 390.965C457.594 390.965 456.095 391.588 455.759 392.465C455.435 393.308 453.947 393.965 452.361 393.965C450.81 393.965 448.865 394.64 448.04 395.465C447.215 396.29 445.19 396.965 443.54 396.965C441.89 396.965 439.865 397.64 439.04 398.465C438.215 399.29 436.833 399.965 435.968 399.965C435.104 399.965 434.397 400.64 434.397 401.465C434.397 402.573 433.238 402.965 429.968 402.965C427.365 402.965 424.922 403.583 424.04 404.465C423.215 405.29 421.833 405.965 420.968 405.965C420.104 405.965 419.397 406.575 419.397 407.32C419.397 411.008 402.901 410.11 401.963 406.371C401.631 405.047 400.747 403.965 399.999 403.965C397.932 403.965 390.533 396.356 389.814 393.491C389.465 392.102 388.554 390.965 387.789 390.965C387.023 390.965 386.397 390.29 386.397 389.465C386.397 388.64 385.722 387.965 384.897 387.965C384.072 387.965 383.397 387.29 383.397 386.465C383.397 385.64 382.722 384.965 381.897 384.965C381.072 384.965 380.397 384.29 380.397 383.465C380.397 382.64 379.983 381.965 379.476 381.965C378.97 381.965 378.259 380.615 377.897 378.965C377.535 377.315 376.599 375.965 375.818 375.965C375.036 375.965 374.397 375.29 374.397 374.465C374.397 373.64 373.722 372.965 372.897 372.965C371.897 372.965 371.397 371.965 371.397 369.965C371.397 367.965 370.897 366.965 369.897 366.965C369.072 366.965 368.397 366.29 368.397 365.465C368.397 364.64 367.983 363.965 367.476 363.965C366.97 363.965 366.259 362.615 365.897 360.965C365.535 359.315 364.599 357.965 363.818 357.965C363.036 357.965 362.397 357.29 362.397 356.465C362.397 355.64 361.983 354.965 361.476 354.965C360.97 354.965 360.259 353.615 359.897 351.965C359.535 350.315 358.86 348.965 358.397 348.965C357.934 348.965 357.259 347.615 356.897 345.965C356.535 344.315 355.599 342.965 354.818 342.965C353.906 342.965 353.397 341.89 353.397 339.965C353.397 337.965 352.897 336.965 351.897 336.965C350.897 336.965 350.397 335.965 350.397 333.965C350.397 331.965 349.897 330.965 348.897 330.965C347.897 330.965 347.397 329.965 347.397 327.965C347.397 325.965 346.897 324.965 345.897 324.965C344.897 324.965 344.397 323.965 344.397 321.965C344.397 319.965 343.897 318.965 342.897 318.965C341.786 318.965 341.397 317.798 341.397 314.465C341.397 311.132 341.008 309.965 339.897 309.965C338.897 309.965 338.397 308.965 338.397 306.965C338.397 304.965 337.897 303.965 336.897 303.965C335.849 303.965 335.397 302.909 335.397 300.465C335.397 298.021 334.945 296.965 333.897 296.965C332.897 296.965 332.397 295.965 332.397 293.965C332.397 291.965 331.897 290.965 330.897 290.965C329.964 290.965 329.397 290.021 329.397 288.465C329.397 286.354 328.93 285.965 326.397 285.965C323.73 285.965 323.397 286.298 323.397 288.965C323.397 290.965 322.897 291.965 321.897 291.965C320.897 291.965 320.397 292.965 320.397 294.965C320.397 296.965 319.897 297.965 318.897 297.965C317.812 297.965 317.397 299.08 317.397 301.996C317.397 304.657 316.887 306.223 315.897 306.603C315.072 306.92 314.397 308.233 314.397 309.522C314.397 310.811 313.79 312.225 313.049 312.665C312.307 313.105 311.418 315.261 311.072 317.457C310.727 319.653 309.984 321.603 309.421 321.79C308.858 321.978 308.397 323.233 308.397 324.58C308.397 325.926 307.719 327.288 306.891 327.606C306.063 327.923 305.106 329.934 304.764 332.074C304.421 334.214 303.799 335.965 303.38 335.965C302.962 335.965 302.33 337.507 301.977 339.392C301.623 341.277 300.869 342.974 300.301 343.164C299.733 343.353 299.013 345.411 298.701 347.737C298.389 350.062 297.779 351.965 297.345 351.965C296.911 351.965 296.259 353.315 295.897 354.965C295.535 356.615 294.883 357.965 294.449 357.965C294.015 357.965 293.405 359.868 293.093 362.193C292.781 364.519 292.047 366.582 291.462 366.777C290.876 366.972 290.397 367.769 290.397 368.548C290.397 369.328 289.778 369.965 289.021 369.965C288.069 369.965 287.499 371.722 287.172 375.665C286.912 378.799 286.196 381.532 285.58 381.737C284.964 381.943 284.171 383.653 283.817 385.538C283.464 387.423 282.817 388.965 282.38 388.965C281.942 388.965 281.268 391.264 280.882 394.074C279.825 401.759 263.397 408.703 263.397 401.465C263.397 400.417 262.341 399.965 259.897 399.965C257.453 399.965 256.397 399.513 256.397 398.465C256.397 397.313 255.119 396.965 250.897 396.965C246.675 396.965 245.397 396.617 245.397 395.465C245.397 394.457 244.389 393.965 242.326 393.965C240.636 393.965 238.579 393.29 237.754 392.465C236.929 391.64 234.917 390.965 233.284 390.965C229.168 390.965 226.431 388.197 227.101 384.715C227.392 383.202 227.979 381.965 228.405 381.965C228.831 381.965 229.49 380.732 229.868 379.225C230.246 377.718 230.986 376.219 231.512 375.894C232.038 375.569 232.753 373.543 233.102 371.393C233.451 369.242 234.336 366.884 235.067 366.152C235.799 365.421 236.397 363.954 236.397 362.894C236.397 361.833 237.072 360.965 237.897 360.965C238.897 360.965 239.397 359.965 239.397 357.965C239.397 356.315 239.798 354.965 240.289 354.965C240.779 354.965 241.49 353.732 241.868 352.225C242.246 350.718 243.004 349.208 243.552 348.869C244.1 348.53 244.799 346.388 245.104 344.109C245.449 341.54 246.18 339.965 247.029 339.965C247.781 339.965 248.397 339.327 248.397 338.548C248.397 337.769 248.876 336.972 249.462 336.777C250.047 336.582 250.781 334.519 251.093 332.193C251.405 329.868 252.015 327.965 252.449 327.965C252.883 327.965 253.535 326.615 253.897 324.965C254.259 323.315 254.934 321.965 255.397 321.965C255.86 321.965 256.535 320.615 256.897 318.965C257.259 317.315 257.934 315.965 258.397 315.965C258.86 315.965 259.526 314.653 259.879 313.049C260.231 311.444 261.167 309.884 261.958 309.58C262.772 309.268 263.397 307.711 263.397 305.996C263.397 304.329 263.817 302.965 264.33 302.965C264.843 302.965 265.578 301.952 265.964 300.715C266.351 299.478 267.09 298.192 267.608 297.859C268.125 297.526 268.799 295.388 269.104 293.109C269.449 290.54 270.18 288.965 271.029 288.965C271.781 288.965 272.397 288.258 272.397 287.394C272.397 286.529 273.072 285.147 273.897 284.322C274.722 283.497 275.397 281.504 275.397 279.894C275.397 277.957 275.905 276.965 276.897 276.965C277.722 276.965 278.397 276.258 278.397 275.394C278.397 274.529 279.072 273.147 279.897 272.322C280.722 271.497 281.397 269.504 281.397 267.894C281.397 265.957 281.905 264.965 282.897 264.965C283.722 264.965 284.397 264.258 284.397 263.394C284.397 262.529 285.072 261.147 285.897 260.322C286.722 259.497 287.397 257.504 287.397 255.894C287.397 253.957 287.905 252.965 288.897 252.965C289.73 252.965 290.397 252.076 290.397 250.965C290.397 249.854 291.064 248.965 291.897 248.965C292.841 248.965 293.397 248.013 293.397 246.394C293.397 244.979 294.072 243.147 294.897 242.322C295.722 241.497 296.397 239.954 296.397 238.894C296.397 237.833 297.072 236.965 297.897 236.965C298.841 236.965 299.397 236.013 299.397 234.394C299.397 232.979 300.072 231.147 300.897 230.322C301.722 229.497 302.397 227.954 302.397 226.894C302.397 225.833 303.072 224.965 303.897 224.965C304.897 224.965 305.397 223.965 305.397 221.965C305.397 219.965 305.897 218.965 306.897 218.965C307.812 218.965 308.397 218.032 308.397 216.572C308.397 215.256 309.072 213.92 309.897 213.603C310.722 213.287 311.397 211.889 311.397 210.496C311.397 208.913 311.959 207.965 312.897 207.965C313.73 207.965 314.397 207.076 314.397 205.965C314.397 204.854 315.064 203.965 315.897 203.965C316.841 203.965 317.397 203.013 317.397 201.394C317.397 199.979 318.072 198.147 318.897 197.322C319.722 196.497 320.397 194.954 320.397 193.894C320.397 192.833 321.072 191.965 321.897 191.965C322.897 191.965 323.397 190.965 323.397 188.965C323.397 186.965 323.897 185.965 324.897 185.965C325.897 185.965 326.397 184.965 326.397 182.965C326.397 180.965 326.897 179.965 327.897 179.965C328.897 179.965 329.397 178.965 329.397 176.965C329.397 174.965 329.897 173.965 330.897 173.965C331.722 173.965 332.397 173.29 332.397 172.465C332.397 171.64 333.072 170.965 333.897 170.965C334.897 170.965 335.397 169.965 335.397 167.965C335.397 165.965 335.897 164.965 336.897 164.965C337.897 164.965 338.397 163.965 338.397 161.965C338.397 159.965 338.897 158.965 339.897 158.965C340.897 158.965 341.397 157.965 341.397 155.965C341.397 153.965 341.897 152.965 342.897 152.965C343.722 152.965 344.397 152.29 344.397 151.465C344.397 150.64 345.072 149.965 345.897 149.965C346.897 149.965 347.397 148.965 347.397 146.965C347.397 144.965 347.897 143.965 348.897 143.965C349.897 143.965 350.397 142.965 350.397 140.965C350.397 138.965 350.897 137.965 351.897 137.965C352.897 137.965 353.397 136.965 353.397 134.965C353.397 132.965 353.897 131.965 354.897 131.965C355.722 131.965 356.397 131.29 356.397 130.465C356.397 129.64 357.072 128.965 357.897 128.965C358.722 128.965 359.397 128.097 359.397 127.036C359.397 125.976 360.05 124.455 360.848 123.657C361.645 122.859 362.594 121.027 362.956 119.586C363.318 118.144 364.015 116.965 364.505 116.965C364.996 116.965 365.397 116.29 365.397 115.465C365.397 114.64 366.072 113.965 366.897 113.965C367.897 113.965 368.397 112.965 368.397 110.965C368.397 108.965 368.897 107.965 369.897 107.965C370.722 107.965 371.397 107.097 371.397 106.036C371.397 104.976 372.072 103.433 372.897 102.608C373.722 101.783 374.397 100.626 374.397 100.036C374.397 99.4466 375.036 98.9646 375.818 98.9646C376.599 98.9646 377.535 97.6146 377.897 95.9646C378.259 94.3146 378.97 92.9646 379.476 92.9646C379.983 92.9646 380.397 92.2756 380.397 91.4336C380.397 90.5906 381.031 89.6586 381.807 89.3606C382.582 89.0636 383.491 87.7276 383.826 86.3926C384.161 85.0566 384.877 83.9646 385.416 83.9646C385.956 83.9646 386.397 83.2756 386.397 82.4336C386.397 81.5906 387.031 80.6586 387.807 80.3606C388.582 80.0636 389.491 78.7276 389.826 77.3926C390.161 76.0566 390.841 74.9646 391.337 74.9646C391.832 74.9646 392.535 73.6146 392.897 71.9646C393.259 70.3146 393.97 68.9646 394.476 68.9646C394.983 68.9646 395.397 68.2756 395.397 67.4336C395.397 66.5906 396.072 65.6426 396.897 65.3266C397.722 65.0096 398.397 64.1196 398.397 63.3476C398.397 62.5766 399.297 61.1746 400.397 60.2326C401.497 59.2906 402.397 57.9456 402.397 57.2426C402.397 56.5396 402.847 55.9646 403.397 55.9646C403.947 55.9646 404.397 55.2856 404.397 54.4546C404.397 53.6246 405.297 52.1746 406.397 51.2326C407.497 50.2906 408.397 48.6986 408.397 47.6946C408.397 46.6906 409.443 44.8776 410.722 43.6666C412 42.4556 413.336 40.6766 413.69 39.7146C414.044 38.7526 414.798 37.9646 415.366 37.9646C415.933 37.9646 416.397 37.2896 416.397 36.4646C416.397 35.6396 417.072 34.9646 417.897 34.9646C418.835 34.9646 419.397 34.0166 419.397 32.4336C419.397 31.0406 420.072 29.6426 420.897 29.3266C421.722 29.0096 422.397 28.1196 422.397 27.3476C422.397 26.5766 423.297 25.1746 424.397 24.2326C425.497 23.2906 426.397 21.9456 426.397 21.2426C426.397 20.5396 426.798 19.9646 427.289 19.9646C427.779 19.9646 428.461 18.8466 428.804 17.4796C429.189 15.9466 430.379 14.7566 431.912 14.3716Z" fill="#FF1D35"/>
<path d="M490.897 448.517C493.372 448.146 495.397 447.42 495.397 446.904C495.397 446.387 496.072 445.965 496.897 445.965C497.722 445.965 498.397 446.379 498.397 446.886C498.397 447.392 499.747 448.103 501.397 448.465C503.047 448.827 504.397 449.57 504.397 450.116C504.397 450.661 505.072 451.783 505.897 452.608C506.722 453.433 507.397 454.976 507.397 456.036C507.397 457.097 507.847 457.965 508.397 457.965C508.953 457.965 509.397 460.632 509.397 463.965C509.397 467.265 509.004 469.965 508.524 469.965C508.044 469.965 507.431 472.263 507.161 475.072C506.891 477.88 506.226 480.468 505.683 480.822C505.141 481.175 504.438 483.442 504.123 485.859C503.807 488.276 503.134 490.526 502.627 490.859C502.121 491.192 501.428 493.229 501.087 495.384C500.747 497.54 500.067 499.565 499.577 499.884C499.087 500.204 498.375 502.153 497.996 504.215C497.617 506.278 496.877 507.965 496.352 507.965C495.827 507.965 495.397 508.83 495.397 509.888C495.397 512.061 489.937 517.965 487.927 517.965C487.203 517.965 486.352 518.64 486.035 519.465C485.699 520.342 484.2 520.965 482.428 520.965C480.761 520.965 479.397 521.415 479.397 521.965C479.397 522.515 478.947 522.965 478.397 522.965C477.847 522.965 477.397 521.84 477.397 520.465C477.397 518.909 477.964 517.965 478.897 517.965C479.897 517.965 480.397 516.965 480.397 514.965C480.397 512.965 480.897 511.965 481.897 511.965C482.897 511.965 483.397 510.965 483.397 508.965C483.397 506.965 483.897 505.965 484.897 505.965C486.008 505.965 486.397 504.798 486.397 501.465C486.397 498.132 486.786 496.965 487.897 496.965C488.897 496.965 489.397 495.965 489.397 493.965C489.397 491.965 489.897 490.965 490.897 490.965C491.939 490.965 492.397 489.917 492.397 487.536C492.397 485.651 491.722 483.433 490.897 482.608C490.072 481.783 489.397 480.678 489.397 480.153C489.397 475.67 475.032 477.586 473.868 482.225C473.49 483.732 472.815 484.965 472.368 484.965C471.921 484.965 471.259 486.315 470.897 487.965C470.535 489.615 469.829 490.965 469.329 490.965C468.83 490.965 468.137 492.737 467.791 494.903C467.445 497.069 466.539 499.08 465.779 499.372C465.019 499.664 464.397 501.266 464.397 502.934C464.397 504.962 463.9 505.965 462.897 505.965C461.982 505.965 461.397 506.898 461.397 508.358C461.397 509.674 460.722 511.01 459.897 511.327C459.072 511.643 458.397 512.591 458.397 513.434C458.397 514.276 457.952 514.965 457.409 514.965C456.865 514.965 456.137 516.737 455.791 518.903C455.445 521.069 454.539 523.08 453.779 523.372C453.019 523.664 452.397 525.266 452.397 526.934C452.397 528.962 451.9 529.965 450.897 529.965C450.072 529.965 449.397 530.64 449.397 531.465C449.397 532.465 448.397 532.965 446.397 532.965C444.397 532.965 443.397 533.465 443.397 534.465C443.397 535.632 442.064 535.965 437.397 535.965C432.73 535.965 431.397 536.298 431.397 537.465C431.397 538.29 430.947 538.965 430.397 538.965C429.847 538.965 429.397 536.94 429.397 534.465C429.397 531.132 429.786 529.965 430.897 529.965C431.722 529.965 432.397 529.29 432.397 528.465C432.397 527.64 433.072 526.965 433.897 526.965C434.722 526.965 435.397 526.29 435.397 525.465C435.397 524.64 436.072 523.965 436.897 523.965C437.897 523.965 438.397 522.965 438.397 520.965C438.397 518.965 438.897 517.965 439.897 517.965C440.722 517.965 441.397 517.29 441.397 516.465C441.397 515.64 441.811 514.965 442.318 514.965C442.824 514.965 443.535 513.615 443.897 511.965C444.259 510.315 445.195 508.965 445.976 508.965C446.758 508.965 447.397 508.065 447.397 506.965C447.397 505.865 447.838 504.965 448.378 504.965C448.917 504.965 449.641 503.84 449.986 502.465C450.331 501.09 450.979 499.965 451.426 499.965C451.873 499.965 452.535 498.615 452.897 496.965C453.259 495.315 454.195 493.965 454.976 493.965C455.888 493.965 456.397 492.89 456.397 490.965C456.397 488.965 456.897 487.965 457.897 487.965C458.722 487.965 459.397 487.338 459.397 486.572C459.397 485.806 460.072 484.92 460.897 484.603C461.722 484.287 462.397 482.937 462.397 481.603C462.397 480.27 463.072 478.92 463.897 478.603C464.722 478.287 465.397 476.889 465.397 475.496C465.397 473.913 465.959 472.965 466.897 472.965C467.73 472.965 468.397 472.076 468.397 470.965C468.397 469.865 468.838 468.965 469.378 468.965C469.917 468.965 470.641 467.84 470.986 466.465C471.331 465.09 472.24 463.965 473.005 463.965C473.771 463.965 474.397 463.065 474.397 461.965C474.397 460.854 475.064 459.965 475.897 459.965C476.722 459.965 477.397 459.52 477.397 458.976C477.397 457.455 480.685 453.965 482.119 453.965C482.822 453.965 483.397 453.515 483.397 452.965C483.397 452.415 484.072 451.965 484.897 451.965C485.722 451.965 486.397 451.341 486.397 450.579C486.397 449.702 488.052 448.944 490.897 448.517Z" fill="#FF1D35"/>
</svg>
